<svg xmlns="http://www.w3.org/2000/svg" width="32" height="32" viewBox="0 0 32 32" >
  <style>
    path {
      fill: black;
    }
    @media (prefers-color-scheme: dark) {
      path { fill: white; }
    }
  </style>
  <g transform="scale(0.5)" >
    <path d="M31.996.1C14.38.102.098 14.385.1 32.002c0 17.618 14.284 31.9 31.902 31.898C49.619 63.9 63.901 49.617 63.9 32H50.82l.27.656h-.04c.164.236.264.537.264.87v8.16c0 .753-.5 1.359-1.123 1.359H13.81c-.623 0-1.123-.606-1.123-1.36v-8.16c0-.332.1-.633.263-.869h-.037l6.52-15.853h25.136l6.25 15.193 13.082-.002C63.897 14.377 49.614.097 31.996.1ZM20.57 18.277l-5.464 13.889 34.625-.07.002.004L32 32l16.933.1-5.501-13.823Zm-4.957 15.852c-.602 0-1.079.43-1.079 1.049v4.787c0 .62.477 1.013 1.079 1.013h32.844c.602 0 1.113-.393 1.113-1.013v-4.787c0-.62-.511-1.049-1.113-1.049zm31.533 2.468c.685 0 .868.353.868 1.007 0 .647-.234 1.008-.868 1.008-.705-.002-.867-.307-.866-1.008 0-.655.17-1.007.866-1.007Z"/>
  </g>
</svg>
